<?xml version="1.0" encoding="UTF-8" standalone="no"?>
<svg
   version="1.1"
   id="Layer_1"
   x="0px"
   y="0px"
   width="100%"
   viewBox="0 0 93 50"
   enable-background="new 0 0 93 50"
   xml:space="preserve"
   sodipodi:docname="icon_general.svg"
   inkscape:version="1.1.1 (3bf5ae0d25, 2021-09-20)"
   xmlns:inkscape="http://www.inkscape.org/namespaces/inkscape"
   xmlns:sodipodi="http://sodipodi.sourceforge.net/DTD/sodipodi-0.dtd"
   xmlns="http://www.w3.org/2000/svg"
   xmlns:svg="http://www.w3.org/2000/svg"><defs
   id="defs61" /><sodipodi:namedview
   id="namedview59"
   pagecolor="#ffffff"
   bordercolor="#666666"
   borderopacity="1.0"
   inkscape:pageshadow="2"
   inkscape:pageopacity="0.0"
   inkscape:pagecheckerboard="0"
   showgrid="false"
   inkscape:zoom="11.376344"
   inkscape:cx="46.456049"
   inkscape:cy="25.008034"
   inkscape:window-width="1842"
   inkscape:window-height="1057"
   inkscape:window-x="70"
   inkscape:window-y="-8"
   inkscape:window-maximized="1"
   inkscape:current-layer="Layer_1" />
<path
   fill="#FFFFFF"
   opacity="1.000000"
   stroke="none"
   d=" M26.000000,1.000000   C32.687645,1.000000 39.375290,1.000000 46.531292,1.468650   C46.999645,7.097416 46.874550,12.261760 47.048714,17.415993   C47.146042,20.296375 47.740139,23.159973 47.974396,26.339806   C45.923992,28.137415 44.009575,29.626356 41.628994,31.076988   C37.479122,31.038681 33.795414,31.038681 30.111706,31.038681   C30.124380,31.384897 30.137054,31.731112 30.149729,32.077328   C34.044903,32.077328 37.940075,32.077328 41.899223,32.290695   C41.963196,32.504059 42.021843,32.945686 42.013504,33.271957   C42.012238,34.032841 42.019318,34.467453 41.672966,34.914272   C40.222332,35.617046 39.125134,36.307610 37.751427,37.118011   C36.640583,38.097054 35.806240,38.956257 34.724266,39.925133   C34.301506,40.336304 34.126377,40.637806 33.736153,40.958252   C33.521061,40.977200 33.096066,41.053837 32.804920,41.207855   C31.000465,43.520603 29.487154,45.679329 27.615231,47.907677   C26.532850,47.901196 25.809086,47.825092 25.126106,47.297569   C25.208420,31.906942 25.249950,16.967728 25.482243,1.916826   C25.882708,1.577665 25.991705,1.309286 26.000000,1.000000  M42.888157,8.470988   C42.600586,8.365328 42.313015,8.259667 41.110374,8.009483   C37.404919,8.056113 33.699463,8.102744 29.144239,8.061816   C25.665884,15.453512 27.549765,18.997623 34.960079,18.995649   C37.121429,18.995073 39.295895,19.105026 41.434788,18.881460   C41.960583,18.826502 42.370331,17.661282 42.974026,16.123602   C42.927814,13.740788 42.881603,11.357972 42.888157,8.470988  z"
   id="path2" />
<path
   fill="#3BB2D0"
   opacity="1.000000"
   stroke="none"
   d=" M94.000000,42.000000   C94.000000,44.959625 94.000000,47.919254 94.000000,51.000000   C86.312775,51.000000 78.625084,51.000000 70.617722,50.639343   C70.863197,48.802029 71.896317,47.331539 71.915878,45.847694   C72.025063,37.561710 71.889046,29.272501 71.878250,20.754356   C71.919685,20.524319 71.830292,20.066206 71.888626,19.647984   C71.969376,17.822250 71.991791,16.414740 72.349625,15.104048   C81.927689,20.407871 87.859291,28.225809 91.146980,38.243259   C91.610474,39.655506 93.025436,40.755482 94.000000,42.000000  z"
   id="path4" />
<path
   fill="#3BB2D0"
   opacity="1.000000"
   stroke="none"
   d=" M23.000000,51.000000   C15.767002,51.000000 8.534004,51.000000 1.000000,51.000000   C1.000000,47.324780 1.000000,43.641567 1.319342,39.761509   C2.088558,38.923851 2.697128,38.342808 2.964371,37.633209   C6.648338,27.851337 12.298619,19.742640 21.991112,15.487682   C21.996710,25.721518 21.945879,35.488579 22.045658,45.254105   C22.065258,47.172455 22.666832,49.084854 23.000000,51.000000  z"
   id="path6" />


<path
   fill="#EEEEEE"
   opacity="1.000000"
   stroke="none"
   d=" M48.110386,26.031134   C47.740139,23.159973 47.146042,20.296375 47.048714,17.415993   C46.874550,12.261760 46.999645,7.097416 46.999825,1.468650   C53.687645,1.000000 60.375290,1.000000 67.523773,1.466381   C67.984329,6.915374 67.984039,11.897985 67.702286,16.882891   C66.968445,16.571133 66.516083,16.257080 65.917847,15.618834   C63.884392,14.553021 61.996803,13.811403 59.654465,13.046984   C56.475590,13.024181 53.751465,13.024181 51.027344,13.024181   C51.030178,13.358487 51.033016,13.692792 51.035851,14.027098   C53.971912,14.027098 56.907970,14.027098 59.796204,14.365024   C55.869041,18.479012 51.989712,22.255072 48.110386,26.031134  z"
   id="path12" />
<path
   fill="#34485E"
   opacity="1.000000"
   stroke="none"
   d=" M21.991112,15.487682   C21.992495,10.656760 21.997585,6.293148 22.001339,1.464767   C22.750000,1.000000 23.500000,1.000000 24.659496,1.268003   C25.143156,1.700175 25.217318,1.864344 25.291481,2.028513   C25.249950,16.967728 25.208420,31.906942 25.102585,47.703491   C25.025518,49.373882 25.012760,50.186939 25.000000,51.000000   C24.555555,51.000000 24.111111,51.000000 23.333332,51.000000   C22.666832,49.084854 22.065258,47.172455 22.045658,45.254105   C21.945879,35.488579 21.996710,25.721518 21.991112,15.487682  z"
   id="path14" />
<path
   fill="#2E4053"
   opacity="1.000000"
   stroke="none"
   d=" M25.468658,51.000000   C25.012760,50.186939 25.025518,49.373882 25.061798,48.154903   C25.809086,47.825092 26.532850,47.901196 28.080360,47.977402   C34.605804,47.933067 40.307507,47.888630 46.472145,47.917236   C53.621731,48.053417 60.308384,48.116562 66.995613,48.532242   C66.997459,49.589855 66.998734,50.294926 67.000000,51.000000   C53.312439,51.000000 39.624878,51.000000 25.468658,51.000000  z"
   id="path16" />
<path
   fill="#33465C"
   opacity="1.000000"
   stroke="none"
   d=" M67.375000,51.000000   C66.998734,50.294926 66.997459,49.589855 67.368607,48.290291   C67.773796,40.488510 67.806580,33.281227 67.910278,25.740231   C69.266396,23.932478 70.551613,22.458435 71.836823,20.984390   C71.889046,29.272501 72.025063,37.561710 71.915878,45.847694   C71.896317,47.331539 70.863197,48.802029 70.149033,50.639343   C69.250000,51.000000 68.500000,51.000000 67.375000,51.000000  z"
   id="path18" />
<path
   fill="#31455C"
   opacity="1.000000"
   stroke="none"
   d=" M67.983749,16.880596   C67.984039,11.897985 67.984329,6.915374 67.992310,1.466381   C69.066673,1.000000 70.133339,1.000000 71.600006,1.000000   C72.003334,5.359022 72.006676,9.718043 72.012115,14.542147   C71.991791,16.414740 71.969376,17.822250 71.557419,19.614948   C70.106514,18.960287 69.045128,17.920443 67.983749,16.880596  z"
   id="path20" />
<path
   fill="#D5D9DD"
   opacity="1.000000"
   stroke="none"
   d=" M25.482244,1.916826   C25.217318,1.864344 25.143156,1.700175 25.034496,1.268003   C25.000000,1.000000 25.500000,1.000000 25.750000,1.000000   C25.991705,1.309286 25.882708,1.577665 25.482244,1.916826  z"
   id="path22" />
<path
   fill="#E74A3A"
   opacity="1.000000"
   stroke="none"
   d=" M47.974396,26.339806   C51.989712,22.255072 55.869041,18.479012 59.870148,14.127846   C59.991924,13.552742 60.109215,13.069785 60.109215,13.069785   C61.996803,13.811403 63.884392,14.553021 65.873123,15.966919   C64.764366,18.155197 63.657211,19.768801 62.326317,21.169872   C57.245838,26.518234 52.093292,31.798138 46.665722,36.977608   C44.916470,35.549633 43.469154,34.247658 42.021843,32.945686   C42.021843,32.945686 41.963196,32.504059 41.980263,32.054466   C41.997326,31.604874 42.095158,31.115295 42.095158,31.115295   C44.009575,29.626356 45.923992,28.137415 47.974396,26.339806  z"
   id="path24" />
<path
   fill="#119BD1"
   opacity="1.000000"
   stroke="none"
   d=" M29.994007,8.149374   C33.699463,8.102744 37.404919,8.056113 41.656792,8.259519   C42.365196,8.730922 42.575928,8.886123 42.835392,8.975158   C42.881603,11.357972 42.927814,13.740788 42.449509,16.563015   C40.933826,17.001719 39.942657,17.000504 38.951488,17.000383   C30.011211,16.999289 30.011211,16.999346 29.994007,8.149374  z"
   id="path26" />
<path
   fill="#E6E6E6"
   opacity="1.000000"
   stroke="none"
   d=" M46.009209,47.844196   C40.307507,47.888630 34.605804,47.933067 28.438972,47.907780   C29.487154,45.679329 31.000465,43.520603 32.877991,41.450573   C33.551327,41.570679 33.860447,41.602085 34.604610,41.671600   C37.356239,41.590919 39.672825,41.472130 42.324471,41.484104   C43.376961,41.614052 44.094387,41.613235 45.088913,41.732613   C45.858929,41.591908 46.351852,41.331013 47.201241,41.045403   C48.034065,41.021450 48.510426,41.022209 48.953934,41.376118   C47.950455,43.767578 46.979832,45.805889 46.009209,47.844196  z"
   id="path28" />
<path
   fill="#0897CF"
   opacity="1.000000"
   stroke="none"
   d=" M29.569122,8.105595   C30.011211,16.999346 30.011211,16.999289 38.951488,17.000383   C39.942657,17.000504 40.933826,17.001719 42.379211,17.004454   C42.370331,17.661282 41.960583,18.826502 41.434788,18.881460   C39.295895,19.105026 37.121429,18.995073 34.960079,18.995649   C27.549765,18.997623 25.665884,15.453512 29.569122,8.105595  z"
   id="path30" />
<path
   fill="#FEFEFE"
   opacity="1.000000"
   stroke="none"
   d=" M48.986786,41.022964   C48.510426,41.022209 48.034065,41.021450 46.993950,40.877010   C46.005753,40.435638 45.581310,40.137947 45.031490,39.642265   C44.718906,39.180889 44.473858,38.992931 44.024887,38.565872   C43.239613,38.070404 42.600418,37.889462 42.020393,37.624962   C42.079567,37.541397 42.059772,37.337570 42.076321,36.930065   C42.070713,35.982395 42.048553,35.442226 42.026398,34.902061   C42.019318,34.467453 42.012238,34.032841 42.013504,33.271957   C43.469154,34.247658 44.916470,35.549633 46.784851,37.265289   C48.081680,38.780941 48.957447,39.882908 49.621521,40.992516   C49.409828,41.000164 48.986786,41.022964 48.986786,41.022964  z"
   id="path32" />
<path
   fill="#E5E4E4"
   opacity="1.000000"
   stroke="none"
   d=" M42.059772,37.337570   C42.059772,37.337570 42.079567,37.541397 42.090706,37.983799   C42.184551,38.654312 42.267254,38.882423 42.265949,39.334641   C42.181938,39.558750 41.995647,39.999687 41.556137,39.997143   C39.068386,39.934883 37.020142,39.875172 34.971897,39.815460   C35.806240,38.956257 36.640583,38.097054 38.157253,37.121796   C39.912979,37.116352 40.986378,37.226963 42.059772,37.337570  z"
   id="path34" />
<path
   fill="#CF4133"
   opacity="1.000000"
   stroke="none"
   d=" M34.724266,39.925129   C37.020142,39.875172 39.068386,39.934883 41.558197,40.223053   C42.003658,40.752205 42.000206,41.052814 41.989407,41.353340   C39.672825,41.472130 37.356239,41.590919 34.591713,41.485100   C34.143772,41.260494 33.951244,40.939308 33.951244,40.939308   C34.126377,40.637806 34.301506,40.336304 34.724266,39.925129  z"
   id="path36" />
<path
   fill="#C7C7C7"
   opacity="1.000000"
   stroke="none"
   d=" M41.628994,31.076988   C42.095158,31.115295 41.997326,31.604874 41.916286,31.841101   C37.940075,32.077328 34.044903,32.077328 30.149729,32.077328   C30.137054,31.731112 30.124380,31.384897 30.111706,31.038681   C33.795414,31.038681 37.479122,31.038681 41.628994,31.076988  z"
   id="path38" />
<path
   fill="#BEBEBE"
   opacity="1.000000"
   stroke="none"
   d=" M42.076321,36.930065   C40.986378,37.226963 39.912979,37.116352 38.433758,37.001961   C39.125134,36.307610 40.222332,35.617046 41.672966,34.914272   C42.048553,35.442226 42.070713,35.982395 42.076321,36.930065  z"
   id="path40" />
<path
   fill="#0897CF"
   opacity="1.000000"
   stroke="none"
   d=" M42.861774,8.723073   C42.575928,8.886123 42.365196,8.730922 42.114326,8.331779   C42.313015,8.259667 42.600586,8.365328 42.861774,8.723073  z"
   id="path42" />
<path
   fill="#D78077"
   opacity="1.000000"
   stroke="none"
   d=" M33.736153,40.958252   C33.951244,40.939308 34.143772,41.260494 34.156670,41.446991   C33.860447,41.602085 33.551327,41.570679 33.169136,41.296555   C33.096066,41.053837 33.521061,40.977200 33.736153,40.958252  z"
   id="path44" />
<path
   fill="#BB3C2F"
   opacity="1.000000"
   stroke="none"
   d=" M49.833210,40.984871   C48.957447,39.882908 48.081680,38.780941 47.086792,37.391293   C52.093292,31.798138 57.245838,26.518234 62.326317,21.169872   C63.657211,19.768801 64.764366,18.155197 66.018997,16.291113   C66.516083,16.257080 66.968445,16.571133 67.702286,16.882893   C69.045128,17.920443 70.106514,18.960287 71.499092,20.033169   C71.830292,20.066206 71.919685,20.524319 71.878258,20.754354   C70.551613,22.458435 69.266396,23.932478 67.560951,25.745811   C62.720776,30.861761 58.384525,35.721649 53.798641,40.333294   C53.032845,41.103394 51.182438,40.794941 49.833210,40.984871  z"
   id="path46" />
<path
   fill="#D0D0D0"
   opacity="1.000000"
   stroke="none"
   d=" M59.654465,13.046984   C60.109215,13.069785 59.991924,13.552742 59.917976,13.789920   C56.907970,14.027098 53.971912,14.027098 51.035851,14.027098   C51.033016,13.692792 51.030178,13.358487 51.027344,13.024181   C53.751465,13.024181 56.475590,13.024181 59.654465,13.046984  z"
   id="path48" />
<path
   fill="#EEEEEE"
   opacity="1.000000"
   stroke="none"
   d=" M49.621521,40.992516   C51.182438,40.794941 53.032845,41.103394 53.798641,40.333294   C58.384525,35.721649 62.720776,30.861761 67.490036,26.079519   C67.806580,33.281227 67.773796,40.488510 67.368027,47.937752   C60.308384,48.116562 53.621731,48.053417 46.472145,47.917236   C46.979832,45.805889 47.950455,43.767578 48.953934,41.376118   C48.986786,41.022964 49.409828,41.000164 49.621521,40.992516  z"
   id="path50" />
<path
   fill="#E6402F"
   opacity="1.000000"
   stroke="none"
   d=" M42.324471,41.484104   C42.000206,41.052814 42.003658,40.752205 41.997704,40.225597   C41.995647,39.999687 42.181938,39.558750 42.570656,39.307709   C43.363235,38.997910 43.767097,38.939152 44.170959,38.880394   C44.473858,38.992931 44.718906,39.180889 44.990322,39.940838   C44.986961,40.829079 44.899387,41.220749 44.811817,41.612419   C44.094387,41.613235 43.376961,41.614052 42.324471,41.484104  z"
   id="path52" />
<path
   fill="#E5847A"
   opacity="1.000000"
   stroke="none"
   d=" M45.088913,41.732613   C44.899387,41.220749 44.986961,40.829079 45.115700,40.138832   C45.581310,40.137947 46.005753,40.435638 46.637486,40.901718   C46.351852,41.331013 45.858929,41.591908 45.088913,41.732613  z"
   id="path54" />
<path
   fill="#E86E62"
   opacity="1.000000"
   stroke="none"
   d=" M44.024887,38.565872   C43.767097,38.939152 43.363235,38.997910 42.654667,39.083603   C42.267254,38.882423 42.184551,38.654312 42.031532,38.067360   C42.600418,37.889462 43.239613,38.070404 44.024887,38.565872  z"
   id="path56" />
</svg>
