<?xml version="1.0" encoding="UTF-8" standalone="no"?>
<svg
   version="1.1"
   id="Layer_1"
   x="0px"
   y="0px"
   width="100%"
   viewBox="0 0 93 50"
   enable-background="new 0 0 93 50"
   xml:space="preserve"
   sodipodi:docname="icon_engaging.svg"
   inkscape:version="1.1.1 (3bf5ae0d25, 2021-09-20)"
   xmlns:inkscape="http://www.inkscape.org/namespaces/inkscape"
   xmlns:sodipodi="http://sodipodi.sourceforge.net/DTD/sodipodi-0.dtd"
   xmlns="http://www.w3.org/2000/svg"
   xmlns:svg="http://www.w3.org/2000/svg"><defs
   id="defs27" /><sodipodi:namedview
   id="namedview25"
   pagecolor="#ffffff"
   bordercolor="#666666"
   borderopacity="1.0"
   inkscape:pageshadow="2"
   inkscape:pageopacity="0.0"
   inkscape:pagecheckerboard="0"
   showgrid="false"
   inkscape:zoom="11.376344"
   inkscape:cx="46.456049"
   inkscape:cy="25.008034"
   inkscape:window-width="1842"
   inkscape:window-height="1057"
   inkscape:window-x="70"
   inkscape:window-y="-8"
   inkscape:window-maximized="1"
   inkscape:current-layer="Layer_1" />
<path
   fill="#33475F"
   opacity="1.000000"
   stroke="none"
   d=" M22.000000,1.000000   C38.354229,1.000000 54.708454,1.000000 71.530914,1.464771   C72.009422,6.291187 72.019691,10.652831 72.020241,15.482119   C72.006210,22.277632 72.044319,28.605894 71.985336,34.933254   C71.929375,40.935116 70.891495,41.951393 65.085350,41.988636   C62.088093,42.007866 59.090759,42.015129 55.618977,42.021500   C49.066174,42.019222 42.987854,42.023251 36.452690,42.014984   C33.352219,41.995811 30.700031,41.850327 28.066875,42.012951   C23.568161,42.290783 21.836132,40.265362 21.951357,35.836224   C22.131762,28.901680 21.981842,21.958544 21.981232,14.553376   C21.993746,9.725137 21.996874,5.362568 22.000000,1.000000  M64.474625,4.322868   C51.660656,4.298609 38.846687,4.274351 25.536049,4.176664   C25.440790,4.459817 25.345533,4.742970 25.157915,5.955944   C25.157915,15.149614 25.157915,24.343285 25.157915,33.600578   C29.771000,33.600578 33.848167,33.600578 38.855171,33.798790   C47.504162,33.818497 56.157047,33.972038 64.798164,33.720871   C66.174049,33.680878 68.625267,31.865602 68.665855,30.798294   C68.987099,22.351215 68.844559,13.886500 68.844559,5.295807   C67.286583,5.171708 66.146683,5.080911 64.474625,4.322868  z"
   id="path2" />
<path
   fill="#3BB2D0"
   opacity="1.000000"
   stroke="none"
   d=" M56.093460,42.027802   C59.090759,42.015129 62.088093,42.007866 65.085350,41.988636   C70.891495,41.951393 71.929375,40.935116 71.985336,34.933254   C72.044319,28.605894 72.006210,22.277632 72.351761,15.578932   C81.783875,20.605434 88.049782,28.210695 91.171684,38.406185   C91.587875,39.765362 93.031944,40.809803 94.000000,42.000000   C94.000000,44.967606 94.000000,47.935211 94.000000,51.000000   C83.645935,51.000000 73.291626,51.000000 62.443722,50.633965   C59.979317,49.151829 58.008503,48.035728 56.012981,46.592705   C55.931149,45.833080 55.874031,45.400372 55.880779,44.603622   C55.994251,43.502316 56.043854,42.765060 56.093460,42.027802  z"
   id="path4" />
<path
   fill="#3BB2D0"
   opacity="1.000000"
   stroke="none"
   d=" M21.971844,15.019048   C21.981842,21.958544 22.131762,28.901680 21.951357,35.836224   C21.836132,40.265362 23.568161,42.290783 28.066875,42.012951   C30.700031,41.850327 33.352219,41.995811 36.487610,42.382870   C37.047287,43.497902 37.115196,44.232761 37.121521,45.334648   C36.991089,46.442364 36.922249,47.183056 36.475533,47.953201   C34.398438,48.988434 32.699219,49.994217 31.000000,51.000000   C21.110445,51.000000 11.220890,51.000000 1.000000,51.000000   C1.000000,47.326077 1.000000,43.642216 1.266339,39.819683   C2.028932,38.902840 2.662658,38.179829 3.000405,37.338055   C6.837121,27.775772 12.359109,19.664108 21.971844,15.019048  z"
   id="path6" />


<path
   fill="#2C3D4B"
   opacity="1.000000"
   stroke="none"
   d=" M31.468658,51.000000   C32.699219,49.994217 34.398438,48.988434 36.953121,47.965660   C43.884956,47.605652 49.961323,47.262638 56.037693,46.919624   C58.008503,48.035728 59.979317,49.151829 61.975063,50.633965   C51.979103,51.000000 41.958210,51.000000 31.468658,51.000000  z"
   id="path12" />
<path
   fill="#F7D61C"
   opacity="1.000000"
   stroke="none"
   d=" M37.925335,33.600578   C33.848167,33.600578 29.771000,33.600578 25.157915,33.600578   C25.157915,24.343285 25.157915,15.149614 25.367767,5.398352   C25.781828,4.684331 25.933529,4.487442 26.032719,4.250092   C38.846687,4.274351 51.660656,4.298609 64.455544,4.828160   C56.352131,13.339362 48.229630,21.307512 40.228580,29.395803   C39.148113,30.488050 38.678047,32.184113 37.925335,33.600578  z"
   id="path14" />
<path
   fill="#DEC019"
   opacity="1.000000"
   stroke="none"
   d=" M38.390251,33.699684   C38.678047,32.184113 39.148113,30.488050 40.228580,29.395803   C48.229630,21.307512 56.352131,13.339362 64.721619,5.161783   C66.146683,5.080911 67.286583,5.171708 68.844559,5.295807   C68.844559,13.886500 68.987099,22.351215 68.665855,30.798294   C68.625267,31.865602 66.174049,33.680878 64.798164,33.720871   C56.157047,33.972038 47.504162,33.818497 38.390251,33.699684  z"
   id="path16" />
<path
   fill="#2B3B4D"
   opacity="1.000000"
   stroke="none"
   d=" M37.183105,44.967621   C37.115196,44.232761 37.047287,43.497902 36.944458,42.395157   C42.987854,42.023251 49.066174,42.019222 55.618977,42.021500   C56.043854,42.765060 55.994251,43.502316 55.424820,44.608391   C48.997704,44.974010 43.090405,44.970818 37.183105,44.967621  z"
   id="path18" />
<path
   fill="#CFB929"
   opacity="1.000000"
   stroke="none"
   d=" M25.784384,4.213378   C25.933529,4.487442 25.781828,4.684331 25.413948,4.933441   C25.345533,4.742970 25.440790,4.459817 25.784384,4.213378  z"
   id="path20" />
<path
   fill="#34485E"
   opacity="1.000000"
   stroke="none"
   d=" M37.121521,45.334648   C43.090405,44.970818 48.997704,44.974010 55.360954,44.972435   C55.874031,45.400372 55.931149,45.833080 56.012981,46.592705   C49.961323,47.262638 43.884956,47.605652 37.330997,47.936207   C36.922249,47.183056 36.991089,46.442364 37.121521,45.334648  z"
   id="path22" />
</svg>
