<?xml version="1.0" encoding="UTF-8" standalone="no"?>
<svg
   version="1.1"
   id="Layer_1"
   x="0px"
   y="0px"
   width="100%"
   viewBox="0 0 93 50"
   enable-background="new 0 0 93 50"
   xml:space="preserve"
   sodipodi:docname="icon_simple.svg"
   inkscape:version="1.1.1 (3bf5ae0d25, 2021-09-20)"
   xmlns:inkscape="http://www.inkscape.org/namespaces/inkscape"
   xmlns:sodipodi="http://sodipodi.sourceforge.net/DTD/sodipodi-0.dtd"
   xmlns="http://www.w3.org/2000/svg"
   xmlns:svg="http://www.w3.org/2000/svg"><defs
   id="defs31" /><sodipodi:namedview
   id="namedview29"
   pagecolor="#ffffff"
   bordercolor="#666666"
   borderopacity="1.0"
   inkscape:pageshadow="2"
   inkscape:pageopacity="0.0"
   inkscape:pagecheckerboard="0"
   showgrid="false"
   inkscape:zoom="11.376344"
   inkscape:cx="46.456049"
   inkscape:cy="25.008034"
   inkscape:window-width="1842"
   inkscape:window-height="1057"
   inkscape:window-x="70"
   inkscape:window-y="-8"
   inkscape:window-maximized="1"
   inkscape:current-layer="Layer_1" />
<path
   fill="#3BB1CF"
   opacity="1.000000"
   stroke="none"
   d=" M94.000000,42.000000   C94.000000,44.974022 94.000000,47.948040 94.000000,51.000000   C80.312523,51.000000 66.624916,51.000000 52.680176,50.711853   C68.509750,45.138329 74.728325,33.438820 70.250710,16.951647   C69.999084,16.025120 70.043716,15.018139 70.302422,14.118586   C80.991608,19.530787 88.327682,27.372255 91.484566,38.827068   C91.814659,40.024822 93.137672,40.948929 94.000000,42.000000  z"
   id="path2" />
<path
   fill="#3BB1CF"
   opacity="1.000000"
   stroke="none"
   d=" M41.000000,51.000000   C27.785336,51.000000 14.570669,51.000000 1.000000,51.000000   C1.000000,47.327103 1.000000,43.642727 1.258970,39.827915   C2.018380,38.913273 2.660174,38.185276 2.997756,37.336308   C7.125532,26.955612 13.363631,18.502678 24.112152,14.457161   C23.951925,15.828780 23.774162,16.813442 23.490023,17.766384   C19.332384,31.710270 25.046766,43.713959 38.542294,49.437248   C39.423889,49.811115 40.183598,50.472404 41.000000,51.000000  z"
   id="path4" />
<path
   fill="#394F64"
   opacity="1.000000"
   stroke="none"
   d=" M41.458069,51.000000   C40.183598,50.472404 39.423889,49.811115 38.542294,49.437248   C25.046766,43.713959 19.332384,31.710270 23.490023,17.766384   C23.774162,16.813442 23.951925,15.828780 24.348610,14.290311   C25.041159,12.907389 25.564262,12.093025 26.335796,11.331561   C27.060104,11.585589 27.535978,11.786717 28.193661,12.287077   C29.011656,13.270223 29.647840,13.954136 30.110592,14.933851   C23.271496,27.070829 28.192282,41.161217 40.359184,45.072521   C49.751431,48.091858 59.141235,44.743713 64.229950,36.560867   C69.064499,28.786734 67.854538,18.301586 61.367485,11.755693   C54.616055,4.943027 44.737885,3.956999 35.440704,8.941180   C34.094334,6.123191 33.047165,3.561595 32.000000,1.000000   C40.020901,1.000000 48.041798,1.000000 56.462788,1.355346   C61.225407,5.823329 65.587936,9.935967 69.950462,14.048604   C70.043716,15.018139 69.999084,16.025120 70.250710,16.951647   C74.728325,33.438820 68.509750,45.138329 52.211517,50.711853   C48.638714,51.000000 45.277424,51.000000 41.458069,51.000000  z"
   id="path6" />


<path
   fill="#07AC8C"
   opacity="1.000000"
   stroke="none"
   d=" M24.891050,4.040993   C24.927652,3.219758 24.964252,2.398524 25.000427,1.288645   C27.041666,1.000000 29.083334,1.000000 31.562500,1.000000   C33.047165,3.561595 34.094334,6.123191 35.377293,9.314466   C34.691826,10.968895 33.770569,11.993644 32.692863,13.171373   C32.336208,13.537812 32.156784,13.767503 31.768894,14.159342   C31.358917,14.317643 31.178181,14.330028 30.940826,14.030624   C29.926758,13.141839 28.969305,12.564842 28.011852,11.987845   C27.535978,11.786717 27.060104,11.585589 26.335796,11.331561   C24.671923,9.951052 23.256479,8.623442 21.597578,7.067480   C22.805069,6.237958 23.576178,5.708224 24.745617,5.278424   C25.780203,5.511347 26.416454,5.644335 27.052708,5.777323   C26.332155,5.198546 25.611603,4.619769 24.891050,4.040993  z"
   id="path12" />
<path
   fill="#E4E5E6"
   opacity="1.000000"
   stroke="none"
   d=" M32.849312,13.018393   C33.770569,11.993644 34.691826,10.968895 35.676495,9.570860   C44.737885,3.956999 54.616055,4.943027 61.367485,11.755693   C67.854538,18.301586 69.064499,28.786734 64.229950,36.560867   C59.141235,44.743713 49.751431,48.091858 40.359184,45.072521   C28.192282,41.161217 23.271496,27.070829 30.318577,14.929626   C30.699995,14.629602 30.997442,14.342413 30.997442,14.342413   C31.178181,14.330028 31.358917,14.317643 32.036636,14.133739   C32.638847,13.647611 32.744080,13.333002 32.849312,13.018393  M57.213608,14.232320   C53.391998,11.212085 48.898708,9.001183 44.314747,10.836345   C40.336628,12.428963 36.268906,15.122872 33.628487,18.435999   C29.130816,24.079557 31.265463,33.388863 37.159519,38.055363   C43.626217,43.175240 52.261147,42.752731 57.996136,37.035824   C64.278564,30.773203 64.189430,22.443815 57.213608,14.232320  z"
   id="path14" />
<path
   fill="#08AD8C"
   opacity="1.000000"
   stroke="none"
   d=" M30.940826,14.030624   C30.997442,14.342413 30.699995,14.629602 30.492012,14.633826   C29.647840,13.954136 29.011656,13.270223 28.193661,12.287077   C28.969305,12.564842 29.926758,13.141839 30.940826,14.030624  z"
   id="path16" />
<path
   fill="#08AD8C"
   opacity="1.000000"
   stroke="none"
   d=" M24.920073,4.248936   C25.611603,4.619769 26.332155,5.198546 27.052708,5.777323   C26.416454,5.644335 25.780203,5.511347 25.047302,5.127576   C24.950653,4.876793 24.949095,4.456879 24.920073,4.248936  z"
   id="path18" />
<path
   fill="#08AD8C"
   opacity="1.000000"
   stroke="none"
   d=" M32.692863,13.171373   C32.744080,13.333002 32.638847,13.647611 32.265877,13.987823   C32.156784,13.767503 32.336208,13.537812 32.692863,13.171373  z"
   id="path20" />
<path
   fill="#405267"
   opacity="1.000000"
   stroke="none"
   d=" M57.485497,14.478636   C64.189430,22.443815 64.278564,30.773203 57.996136,37.035824   C52.261147,42.752731 43.626217,43.175240 37.159519,38.055363   C31.265463,33.388863 29.130816,24.079557 33.628487,18.435999   C36.268906,15.122872 40.336628,12.428963 44.314747,10.836345   C48.898708,9.001183 53.391998,11.212085 57.485497,14.478636  M53.847412,34.473171   C55.075779,32.550488 56.746265,30.775131 57.445705,28.676188   C59.211834,23.376238 55.898830,17.632719 50.363182,15.715961   C45.248577,13.944993 39.342327,16.385225 37.248737,21.046083   C35.057201,25.925001 35.574718,30.063156 39.794800,33.776127   C43.907867,37.394943 47.252720,37.865234 53.847412,34.473171  z"
   id="path22" />
<path
   fill="#EAE8E8"
   opacity="1.000000"
   stroke="none"
   d=" M53.532501,34.688015   C47.252720,37.865234 43.907867,37.394943 39.794800,33.776127   C35.574718,30.063156 35.057201,25.925001 37.248737,21.046083   C39.342327,16.385225 45.248577,13.944993 50.363182,15.715961   C55.898830,17.632719 59.211834,23.376238 57.445705,28.676188   C56.746265,30.775131 55.075779,32.550488 53.532501,34.688015  M41.721760,29.854532   C44.767899,33.218681 48.266964,32.947403 51.307903,30.296539   C53.864571,28.067822 54.185188,24.457424 51.664570,22.315126   C49.887703,20.804951 45.630360,19.684221 44.326908,20.717903   C42.182220,22.418705 37.508556,24.747110 41.721760,29.854532  z"
   id="path24" />
<path
   fill="#E65445"
   opacity="1.000000"
   stroke="none"
   d=" M41.543304,29.499649   C37.508556,24.747110 42.182220,22.418705 44.326908,20.717903   C45.630360,19.684221 49.887703,20.804951 51.664570,22.315126   C54.185188,24.457424 53.864571,28.067822 51.307903,30.296539   C48.266964,32.947403 44.767899,33.218681 41.543304,29.499649  z"
   id="path26" />
</svg>
